/* XPM */
static char *_cfa7798f95744f7f4f39c06efb32ca87PR0DotHyFdSVNaB[] = {
/* columns rows colors chars-per-pixel */
"32 32 12 1 ",
"  c #9B8143",
". c #9B8144",
"X c #9F8547",
"o c #92844F",
"O c #968751",
"+ c #968853",
"@ c #BFA76D",
"# c #599897",
"$ c #77AEAD",
"% c #E6CF9A",
"& c #EED8A4",
"* c #F4E5C0",
/* pixels */
"@&&&&&&&&&&&&&&&&&&&&&&&&&&&*&@ ",
"@&&&&&&&&&&&&&&&&&&&&&&&&&&&*%@@",
"@&**&&&&&&&&&&&&&&&&&&&&&&&&*&@ ",
"@&&@&&&&&&&&&&&&&&&&&&&&&&&&*&@ ",
"@&&&&**&&&&&&&&&&&&&&&&&&&&&*&@ ",
"@&&&@@@&&&&&&&&&&&&&&&&&&&&&*&@ ",
"@&&&&&&&&&&&&&&&&&&&&&&&&&&&*&@ ",
"@&&&&&&&&&&&&&&&&&&&&&&&&&&&&&@ ",
"@&&&&&&&&&&&&&&&&&&&&&&&&&&&&&@ ",
"@&&&&&&&&&&&&&&&&&&&&&&&&&&&&&@ ",
"@&&&&&&&&&&&&&&&&&&&&&&&&&&&&&@ ",
"@&&&&&&&&&&&&&&&&&&&&&&&&&&&&&@ ",
"@&&&&&&&&&&&&&&&&&&&&&&&&&&&&&@ ",
"@&&&&&&&&&&&&&&&&&&&&&&&&&&&&&@ ",
"@&&&&&&&&&&&&&&&&&&&&&&&&&&&&&@ ",
"@&&&&&&&&&&&&&&&&&&&&&&&&&&&&&@@",
"@&&&&&&&&&&&&&&&&&&&&&&&&&&&&&@ ",
"@&&&&&&&&&&&&&&&&&&&&&&&&&&&&&@ ",
"@&&&&&&&&&&&&&&&&&&&&&&&&&&&&&@ ",
"@&*&&&&&&&&&&&&&&&&&&&&&&&&&&&@ ",
"@&*&&&&&&&&&&&&&&&&&&&&&&&&&&&@ ",
"@&*&&&&&&&&&&&&&&&&&&&&&&&&&&&@ ",
"@&&&&&&&&&&&&&&&&&&&&&&&&&&&&&@ ",
"@&&&&&&&&&&&&&&&&*&&&&&&&&&&&&@ ",
"@&&&&&&&&&&&&&&&&@&&&&&&&&&&&&@ ",
"@&*&&&&&&&&&&&&&&&&&&&&&&&&&&*@ ",
" &&*&&&&&&*************&&&&&*&@ ",
" @&&&&&&&&&&&&&&&&&&&&&&&&&&&@@ ",
" X               @       @@   X ",
" @@@@@@@@@@@@@@@@@@@@@@@@@@@@@@.",
"o @@@@@@@@@@@@@@@@@@@@@@@@@@@@ O",
"#O                            +$"
};
