/* XPM */
static char *result[] = {
/* columns rows colors chars-per-pixel */
"32 32 123 2 ",
"   c #B57FE0",
".  c #C67FE0",
"X  c #999BDF",
"o  c #9A9BDF",
"O  c #BC85DF",
"+  c #AD8FE0",
"@  c #B180E0",
"#  c #B680E0",
"$  c #BD85E0",
"%  c #BE84E0",
"&  c #BF84E0",
"*  c #BF8AE2",
"=  c #BD8DE2",
"-  c #BC8FE3",
";  c #A190E0",
":  c #AC91E0",
">  c #AE93E3",
",  c #AF98E4",
"<  c #BC90E3",
"1  c #B699E4",
"2  c #99BCEB",
"3  c #A3A6E7",
"4  c #AFA5E7",
"5  c #B2A5E7",
"6  c #B3A8E8",
"7  c #C182E0",
"8  c #C282E1",
"9  c #C480E0",
"0  c #C580E0",
"q  c #C581E0",
"w  c #C680E0",
"e  c #C781E0",
"r  c #C781E1",
"t  c #C482E1",
"y  c #C483E1",
"u  c #C782E1",
"i  c #C187E1",
"p  c #C486E2",
"a  c #C883E1",
"s  c #C884E1",
"d  c #C985E2",
"f  c #C986E2",
"g  c #CA87E2",
"h  c #C088E2",
"j  c #C089E2",
"k  c #CA88E2",
"l  c #CA88E3",
"z  c #CB89E3",
"x  c #CB8AE3",
"c  c #CB8BE3",
"v  c #CC8DE4",
"b  c #CD8EE4",
"n  c #CD8FE4",
"m  c #CE90E5",
"M  c #CE91E5",
"N  c #CE92E5",
"B  c #C09AE5",
"V  c #C698E5",
"C  c #D096E6",
"Z  c #D197E7",
"A  c #D299E7",
"S  c #D29AE7",
"D  c #D29BE8",
"F  c #D39CE8",
"G  c #D49EE8",
"H  c #D49EE9",
"J  c #C5A1E8",
"K  c #CDA8EB",
"L  c #D6A1E9",
"P  c #D6A2EA",
"I  c #D6A3EA",
"U  c #D7A4EA",
"Y  c #D7A5EA",
"T  c #D8A8EB",
"R  c #DAABEC",
"E  c #DAACEC",
"W  c #DBACED",
"Q  c #DBADED",
"!  c #DBAEED",
"~  c #D4B0ED",
"^  c #D6B2EE",
"/  c #D7B4EF",
"(  c #DCB1EE",
")  c #DDB1EE",
"_  c #DDB2EE",
"`  c #DDB3EE",
"'  c #DEB3EE",
"]  c #D8B4EE",
"[  c #D9B6EF",
"{  c #DEB5EF",
"}  c #DFB7EF",
"|  c #D9B8EF",
" . c #DAB8F0",
".. c #DBB9F0",
"X. c #DDBCF1",
"o. c #DEBCF1",
"O. c #DFBEF1",
"+. c #E0B9F0",
"@. c #E0BAF0",
"#. c #E1BBF1",
"$. c #E2BCF1",
"%. c #E2BDF1",
"&. c #E2BEF1",
"*. c #E3BEF1",
"=. c #E3BFF1",
"-. c #E3BFF2",
";. c #AFD8F2",
":. c #C5D1F3",
">. c #E1C1F2",
",. c #E4C0F2",
"<. c #E4C1F2",
"1. c #E4C2F2",
"2. c #E4C2F3",
"3. c #E5C3F3",
"4. c #E5C4F3",
"5. c #E5C5F3",
"6. c #E6C5F3",
"7. c #E6C6F3",
"8. c #E6C6F4",
"9. c #E6C7F4",
"0. c #E7C7F4",
"q. c #E7C8F4",
"w. c #000000",
/* pixels */
"w.w.w.w.w.w.w.w.w.w.w.w.w.w.w.w.w.w.w.w.w.w.w.w.w.w.w.w.w.w.w.w.",
"w.w.w.w.w.w.w.w.w.w.w.w.w.w.w.w.w.w.w.w.w.w.w.w.w.w.w.w.w.w.w.w.",
"w.w.w.w.w.w.w.w.w.w.w.w.w.w.w.w.w.w.w.w.w.w.w.w.w.w.w.w.w.w.w.w.",
"w.w.w.w.w.w.w.w.w.w.w.w.w.w.w.w.w.w.w.w.w.w.w.w.w.w.w.w.w.w.w.w.",
"w.w.w.w.w.w.w.w.w.w.w.w.w.w.w.w.w.w.w.w.w.w.w.w.w.w.w.w.w.w.w.w.",
"w.w.w.w.w.w.w.w.w.w.w.w.w.w.w.w.w.w.w.w.w.w.w.w.w.w.w.w.w.w.w.w.",
"w.w.w.w.w.w.w.w.w.w.w.w.w.w.h j w.w.w.w.w.w.w.w.w.w.w.w.w.w.w.w.",
"w.w.w.w.w.w.w.w.w.w.w.w.w.j $.$.. < w.w.w.w.w.w.w.w.w.w.w.w.w.w.",
"w.w.w.w.w.w.w.w.w.w.w.w.w.& 4.q.) A . w.w.w.w.w.w.w.w.w.w.w.w.w.",
"w.w.k p w.w.w.w.w.w.w.w.w.* ( 7.<.q.S < w.w.w.w.w.w.w.w.w.w.w.w.",
"w.w.n { r w.w.w.w.w.w.w.w.w f s . s f w w.w.w.w.w.w.w.w.w.w.w.w.",
"w.w.u 9.R w w.w.w.w.4 q a C U R ! R U C 8   > w.w.w.w.w.w.w.w.w.",
"w.w.. } q.F 7 w.w.% x ! 7.q.q.q.q.q.q.q.] 2.8.@ w.w.w.w.w.w.w.w.",
"w.w.1 I q.0.P d . e ' &.q.q.q.q.q.q.q.q.X.| ;.2 0 0 = w.w.w.w.w.",
"w.w.w.l 6.q.q.q.6.=.#.q.3.P c e e c P 3.O. .K / v b H e w.w.w.w.",
"w.w.w.B q.q.q.q.0.q.q.q.v f L Q Q L f v q.q.q.-._ *.q.Y $ w.w.w.",
"w.w.w.V q.q.q.q.0.q.6.q.v Z %.7.q.5.1.9.q.q.q.-._ &.q.Y $ w.w.w.",
"w.w.w.N q.q.q.` D 5.7.0.3.6.q.q.q.q.q.q.>...~ [ v F G e w.w.w.w.",
"w.w.y E q.4.C 0 9 g T 9.q.q.q.q.q.q.q.q.o.q.:.3 0 0 = w.w.w.w.w.",
"w.w.. %.7.M * w.w.i z Q 7.q.q.q.q.q.q.q.^ J 3., w.w.w.w.w.w.w.w.",
"w.w.a 0.H O w.w.w.w.X 9 a C Y R ! R Y C t # ; w.w.w.w.w.w.w.w.w.",
"w.w.m +.: w.w.w.w.w.w.w.w.. W 4.4.E s q w.w.w.w.w.w.w.w.w.w.w.w.",
"w.w.6 5 w.w.w.w.w.w.w.w.w.. &.q.q.1.e w.w.w.w.w.w.w.w.w.w.w.w.w.",
"w.w.w.w.w.w.w.w.w.w.w.w.w.w ,.8.} = w.w.w.w.w.w.w.w.w.w.w.w.w.w.",
"w.w.w.w.w.w.w.w.w.w.w.w.w.+ +.@.o w.w.w.w.w.w.w.w.w.w.w.w.w.w.w.",
"w.w.w.w.w.w.w.w.w.w.w.w.w.w.- < w.w.w.w.w.w.w.w.w.w.w.w.w.w.w.w.",
"w.w.w.w.w.w.w.w.w.w.w.w.w.w.w.w.w.w.w.w.w.w.w.w.w.w.w.w.w.w.w.w.",
"w.w.w.w.w.w.w.w.w.w.w.w.w.w.w.w.w.w.w.w.w.w.w.w.w.w.w.w.w.w.w.w.",
"w.w.w.w.w.w.w.w.w.w.w.w.w.w.w.w.w.w.w.w.w.w.w.w.w.w.w.w.w.w.w.w.",
"w.w.w.w.w.w.w.w.w.w.w.w.w.w.w.w.w.w.w.w.w.w.w.w.w.w.w.w.w.w.w.w.",
"w.w.w.w.w.w.w.w.w.w.w.w.w.w.w.w.w.w.w.w.w.w.w.w.w.w.w.w.w.w.w.w.",
"w.w.w.w.w.w.w.w.w.w.w.w.w.w.w.w.w.w.w.w.w.w.w.w.w.w.w.w.w.w.w.w."
};
