/* XPM */
static char *e5be9e62aa6d4bdcec745ad8a6fc7849pYBS9sKaUYCp3Dv6[] = {
/* columns rows colors chars-per-pixel */
"32 32 125 2 ",
"   c #000000",
".  c #B57FE0",
"X  c #C67FE0",
"o  c #999BDF",
"O  c #9F9CE0",
"+  c #A38EE0",
"@  c #B180E0",
"#  c #B780E0",
"$  c #B987E0",
"%  c #BB86E0",
"&  c #BA87E0",
"*  c #BC85E0",
"=  c #BD85E0",
"-  c #B28BE0",
";  c #B58AE0",
":  c #BF8AE2",
">  c #BD8DE2",
",  c #BC8FE3",
"<  c #AD97E4",
"1  c #AE96E4",
"2  c #B696E2",
"3  c #B995E4",
"4  c #B896E4",
"5  c #B699E4",
"6  c #99BCEB",
"7  c #A3A6E7",
"8  c #AFA5E6",
"9  c #AFA5E7",
"0  c #B3A8E8",
"q  c #C381E0",
"w  c #C282E1",
"e  c #C480E0",
"r  c #C580E0",
"t  c #C581E0",
"y  c #C680E0",
"u  c #C781E0",
"i  c #C781E1",
"p  c #C482E1",
"a  c #C483E1",
"s  c #C782E1",
"d  c #C285E1",
"f  c #C187E1",
"g  c #C286E1",
"h  c #C883E1",
"j  c #C884E1",
"k  c #C985E2",
"l  c #C986E2",
"z  c #CA87E2",
"x  c #C088E2",
"c  c #CA88E2",
"v  c #CA88E3",
"b  c #CB89E3",
"n  c #CB8AE3",
"m  c #CB8BE3",
"M  c #CC8DE4",
"N  c #CD8EE4",
"B  c #CD8FE4",
"V  c #CE90E5",
"C  c #CE91E5",
"Z  c #CE92E5",
"A  c #C698E5",
"S  c #D096E6",
"D  c #D197E7",
"F  c #D299E7",
"G  c #D29AE7",
"H  c #D29BE8",
"J  c #D39CE8",
"K  c #D49EE8",
"L  c #D49EE9",
"P  c #C5A1E8",
"I  c #CDA8EB",
"U  c #D6A1E9",
"Y  c #D6A2EA",
"T  c #D6A3EA",
"R  c #D7A4EA",
"E  c #D7A5EA",
"W  c #D8A8EB",
"Q  c #DAABEC",
"!  c #DAACEC",
"~  c #DBACED",
"^  c #DBADED",
"/  c #DBAEED",
"(  c #D4B0ED",
")  c #D6B2EE",
"_  c #D7B4EF",
"`  c #DCB1EE",
"'  c #DDB1EE",
"]  c #DDB2EE",
"[  c #DDB3EE",
"{  c #DEB3EE",
"}  c #D8B4EE",
"|  c #D9B6EF",
" . c #DEB5EF",
".. c #DFB7EF",
"X. c #D9B8EF",
"o. c #DAB8F0",
"O. c #DBB9F0",
"+. c #DDBCF1",
"@. c #DEBCF1",
"#. c #DFBEF1",
"$. c #E0B9F0",
"%. c #E0BAF0",
"&. c #E1BBF1",
"*. c #E2BCF1",
"=. c #E2BDF1",
"-. c #E2BEF1",
";. c #E3BEF1",
":. c #E3BFF1",
">. c #E3BFF2",
",. c #AFD8F2",
"<. c #C5D1F3",
"1. c #E1C1F2",
"2. c #E4C0F2",
"3. c #E4C1F2",
"4. c #E4C2F2",
"5. c #E4C2F3",
"6. c #E5C3F3",
"7. c #E5C4F3",
"8. c #E5C5F3",
"9. c #E6C5F3",
"0. c #E6C6F3",
"q. c #E6C6F4",
"w. c #E6C7F4",
"e. c #E7C7F4",
"r. c #E7C8F4",
/* pixels */
"                                                                ",
"                                                                ",
"                                                                ",
"                  0 Z z X r         5 r r N b                   ",
"                  O $.r.-.~ Z A 2 b E [ r...g                   ",
"                    3 J 8.r.r.r.e.e.r.r.~ r                     ",
"                      g Z 2.r.r.r.r.e.J r                       ",
"                        $ F r.r.r.r.Y w                         ",
"                          r [ r.e.e.z                           ",
"                          r J e.e.8.X                           ",
"                        * z 8.e.r.-.h g                         ",
"                      9 b W 8.e.e.-.[ b o                       ",
"                      r ~ r.e.r.e.r.-.~ r                       ",
"                      h 8.r.6.N N 2.r.r.h                       ",
"              3 r X X S r.r.8.S z Y r.r.S r : w &               ",
"            , $.2.-.~ E r.r.r.-.Y m r.r.Y z ` e.-.x             ",
"            - $.8.r.8.! r.r.r.8.~ t r.r./ h 8.r.;.*             ",
"              9 X.r.8.~ r.r.r.r.~ t r.r./ r 2.` r               ",
"                & 8.! ! r.r.r.8.Y m r.r.Q r r.F ;               ",
"                  t j E r.r.r.5.z Y r.r.E z F X                 ",
"                    r Z e.r.r.r.m 8.r.r.S r -                   ",
"                      j ) -.5.8.r.-.@.) w                       ",
"                      # P r.O.r.r.X.X.5.#                       ",
"                      < 2.<.) r.r.I ,.e.+                       ",
"                        < 7 X.2.2.) 6 @                         ",
"                          r m ` ` N r                           ",
"                          t J ;.;.N X                           ",
"                          , K e.r.J ,                           ",
"                            r E W h                             ",
"                              g *                               ",
"                                                                ",
"                                                                "
};
