/* XPM */
static char *result[] = {
/* columns rows colors chars-per-pixel */
"32 32 101 2 ",
"   c #C67FE0",
".  c #999BDF",
"X  c #9F9CE0",
"o  c #B987E0",
"O  c #BB86E0",
"+  c #BA87E0",
"@  c #BC85E0",
"#  c #BD85E0",
"$  c #B28BE0",
"%  c #B58AE0",
"&  c #BF8AE2",
"*  c #BD8DE2",
"=  c #BC8FE3",
"-  c #B696E2",
";  c #B995E4",
":  c #B896E4",
">  c #B699E4",
",  c #AFA5E6",
"<  c #AFA5E7",
"1  c #B3A8E8",
"2  c #C381E0",
"3  c #C480E0",
"4  c #C580E0",
"5  c #C581E0",
"6  c #C680E0",
"7  c #C781E0",
"8  c #C781E1",
"9  c #C483E1",
"0  c #C782E1",
"q  c #C285E1",
"w  c #C187E1",
"e  c #C286E1",
"r  c #C883E1",
"t  c #C884E1",
"y  c #C985E2",
"u  c #C986E2",
"i  c #CA87E2",
"p  c #C088E2",
"a  c #CA88E2",
"s  c #CA88E3",
"d  c #CB89E3",
"f  c #CB8AE3",
"g  c #CB8BE3",
"h  c #CC8DE4",
"j  c #CD8EE4",
"k  c #CD8FE4",
"l  c #CE90E5",
"z  c #CE91E5",
"x  c #CE92E5",
"c  c #C698E5",
"v  c #D096E6",
"b  c #D197E7",
"n  c #D198E7",
"m  c #D298E7",
"M  c #D299E7",
"N  c #D29AE7",
"B  c #D29BE8",
"V  c #D39CE8",
"C  c #D49EE8",
"Z  c #D49EE9",
"A  c #D6A1E9",
"S  c #D6A2EA",
"D  c #D6A3EA",
"F  c #D7A4EA",
"G  c #D7A5EA",
"H  c #D8A8EB",
"J  c #DAABEC",
"K  c #DAACEC",
"L  c #DBACED",
"P  c #DBADED",
"I  c #DBAEED",
"U  c #DCB1EE",
"Y  c #DDB1EE",
"T  c #DDB2EE",
"R  c #DDB3EE",
"E  c #DEB3EE",
"W  c #DEB5EF",
"Q  c #DFB7EF",
"!  c #E0B9F0",
"~  c #E0BAF0",
"^  c #E1BBF1",
"/  c #E2BCF1",
"(  c #E2BDF1",
")  c #E2BEF1",
"_  c #E3BEF1",
"`  c #E3BFF1",
"'  c #E3BFF2",
"]  c #E4C0F2",
"[  c #E4C1F2",
"{  c #E4C2F2",
"}  c #E5C3F3",
"|  c #E5C4F3",
" . c #E5C5F3",
".. c #E6C5F3",
"X. c #E6C6F3",
"o. c #E7C7F3",
"O. c #E6C6F4",
"+. c #E6C7F4",
"@. c #E7C7F4",
"#. c #E7C8F4",
"$. c #000000",
/* pixels */
"$.$.$.$.$.$.$.$.$.$.$.$.$.$.$.$.$.$.$.$.$.$.$.$.$.$.$.$.$.$.$.$.",
"$.$.$.$.$.$.$.$.$.$.$.$.$.$.$.$.$.$.$.$.$.$.$.$.$.$.$.$.$.$.$.$.",
"$.$.$.$.$.$.$.$.$.$.$.$.$.$.$.$.$.$.$.$.$.$.$.$.$.$.$.$.$.$.$.$.",
"$.$.$.$.$.$.$.$.$.$.$.$.$.$.$.w # $.$.$.$.$.$.$.$.$.$.$.$.$.$.$.",
"$.$.$.$.$.$.$.$.$.$.$.$.$.$.7 G G 7 $.$.$.$.$.$.$.$.$.$.$.$.$.$.",
"$.$.$.$.$.$.$.$.$.$.$.$.$.* C #.#.Z * $.$.$.$.$.$.$.$.$.$.$.$.$.",
"$.$.$.$.$.$.$.$.$.$.$.$.$.4 V ) _ j 4 $.$.$.$.$.$.$.$.$.$.$.$.$.",
"$.$.$.$.$.$.$.$.$.$.$.$.$.6 h T T h 6 $.$.$.$.$.$.$.$.$.$.$.$.$.",
"$.$.$.$.$.$.$.$.$.$.$.$.@ m +.' ' +.n @ $.$.$.$.$.$.$.$.$.$.$.$.",
"$.$.$.$.$.$.$.$.$.$.$.< d ..#.#.#.#.X.f . $.$.$.$.$.$.$.$.$.$.$.",
"$.$.$.$.$.$.$.$.$.$.$.5 P #.#.#.#.#.#.P 3 $.$.$.$.$.$.$.$.$.$.$.",
"$.$.$.$.$.$.$.$.$.$.$.r X.#.#.#.#.#.#.X.r $.$.$.$.$.$.$.$.$.$.$.",
"$.$.$.$.$.$.$.$.$.$.2 v #.o.#.+.h } #.#.v 4 $ $.$.$.$.$.$.$.$.$.",
"$.$.$.$.$.$.$.$.$.7 t G #.#.#.{ u S #.#.F u N   $.$.$.$.$.$.$.$.",
"$.$.$.$.$.$.$.$.% { K J #.#.#. .A g #.#.J t #.M $ $.$.$.$.$.$.$.",
"$.$.$.$.$.$.$., Q #.| I #.#.#.#.P 7 #.#.I   [ Y   $.$.$.$.$.$.$.",
"$.$.$.$.$.$.$ ~ O.#.| J #.#.#.X.P 7 #.#.J t X.#./ O $.$.$.$.$.$.",
"$.$.$.$.$.$.= ! ] ) L G #.#.#.( A g #.#.F u U | / p $.$.$.$.$.$.",
"$.$.$.$.$.$.$.; 4     v #.#...b u S #.#.v 6 & q + $.$.$.$.$.$.$.",
"$.$.$.$.$.$.$.$.$.$.$.r X.#.} h h } #.X.r $.$.$.$.$.$.$.$.$.$.$.",
"$.$.$.$.$.$.$.$.$.$.$.3 P +.@.#.#.#.) I 3 $.$.$.$.$.$.$.$.$.$.$.",
"$.$.$.$.$.$.$.$.$.$.$.< d H X...#.^ E f . $.$.$.$.$.$.$.$.$.$.$.",
"$.$.$.$.$.$.$.$.$.$.$.$.@ i  .#.#.` 7 e $.$.$.$.$.$.$.$.$.$.$.$.",
"$.$.$.$.$.$.$.$.$.$.$.$.$.5 B @.@...  $.$.$.$.$.$.$.$.$.$.$.$.$.",
"$.$.$.$.$.$.$.$.$.$.$.$.$.4 R #.#.#.y $.$.$.$.$.$.$.$.$.$.$.$.$.",
"$.$.$.$.$.$.$.$.$.$.$.$.o v #.#.#.#.S 9 $.$.$.$.$.$.$.$.$.$.$.$.",
"$.$.$.$.$.$.$.$.$.$.$.e z | #.#.#.#.@.V 5 $.$.$.$.$.$.$.$.$.$.$.",
"$.$.$.$.$.$.$.$.$.$.: Z X.#.#.#.#...#.#.J 8 $.$.$.$.$.$.$.$.$.$.",
"$.$.$.$.$.$.$.$.$.X ! @.( K x c - s D Q +.W q $.$.$.$.$.$.$.$.$.",
"$.$.$.$.$.$.$.$.$.1 l r   9 $.$.$.$.>   0 k a $.$.$.$.$.$.$.$.$.",
"$.$.$.$.$.$.$.$.$.$.$.$.$.$.$.$.$.$.$.$.$.$.$.$.$.$.$.$.$.$.$.$.",
"$.$.$.$.$.$.$.$.$.$.$.$.$.$.$.$.$.$.$.$.$.$.$.$.$.$.$.$.$.$.$.$."
};
