/* XPM */
static char *_13ed3ae69414020be9e7e0245a150bcI6kVUJxilIEQwxEO[] = {
/* columns rows colors chars-per-pixel */
"32 32 100 2 ",
"   c #000000",
".  c #030406",
"X  c #06090D",
"o  c #0A1011",
"O  c #121C22",
"+  c #565083",
"@  c #545980",
"#  c #575C83",
"$  c #595984",
"%  c #5D5A87",
"&  c #63568D",
"*  c #655C8E",
"=  c #765F9D",
"-  c #795E9F",
";  c #5E6188",
":  c #67688F",
">  c #6A6492",
",  c #6C6095",
"<  c #6B6B92",
"1  c #6C6B93",
"2  c #73609A",
"3  c #78699D",
"4  c #727098",
"5  c #76739B",
"6  c #7D60A3",
"7  c #7C77A0",
"8  c #7E79A1",
"9  c #8466A9",
"0  c #8560AC",
"q  c #8865AC",
"w  c #827BA4",
"e  c #8970AC",
"r  c #8B75AD",
"t  c #8D66B7",
"y  c #8A69BB",
"u  c #9269B5",
"i  c #9371B5",
"p  c #9471B6",
"a  c #B879D4",
"s  c #BE7DDC",
"d  c #C47EDE",
"f  c #C57FE0",
"g  c #C67FE0",
"h  c #8981AA",
"j  c #8E85AE",
"k  c #9389B2",
"l  c #9488B3",
"z  c #9E90BA",
"x  c #A191BD",
"c  c #A394BE",
"v  c #A594C0",
"b  c #A797C1",
"n  c #B495CE",
"m  c #B782D5",
"M  c #BC80DE",
"N  c #B48ADC",
"B  c #BFA5D5",
"V  c #B699E4",
"C  c #9DBEE9",
"Z  c #B2A7E7",
"A  c #A2BBEA",
"S  c #A0BCEA",
"D  c #C185DB",
"F  c #C586DE",
"G  c #C19CD8",
"H  c #C2ACD7",
"J  c #C4AED9",
"K  c #C7B0DB",
"L  c #CBB2DE",
"P  c #C781E0",
"I  c #C483E1",
"U  c #C486E2",
"Y  c #C883E1",
"T  c #CA87E2",
"R  c #CA88E3",
"E  c #CD8FE4",
"W  c #CE90E5",
"Q  c #CE92E5",
"!  c #D096E6",
"~  c #D29BE8",
"^  c #D39CE8",
"/  c #D49EE9",
"(  c #D6A2EA",
")  c #D6A3EA",
"_  c #D5A6E9",
"`  c #D9AFEA",
"'  c #DAABEC",
"]  c #CFB5E1",
"[  c #DDB3EE",
"{  c #DCB7ED",
"}  c #DEB5EF",
"|  c #E0B9F0",
" . c #E2BDF1",
".. c #9FC0EB",
"X. c #E2C2F0",
"o. c #E2C4F0",
"O. c #E5C5F3",
"+. c #E6C6F3",
"@. c #E7C7F4",
"#. c #E7C8F4",
/* pixels */
"                                                                ",
"                                                                ",
"                                                                ",
"                                                                ",
"                                                                ",
"                                                                ",
"                                                                ",
"                                                                ",
"                                                                ",
"                  Z W Y g D C     ..V P Y E R A                 ",
"                  Z | @. .[ W E m R ) } @.} U                   ",
"                  C N / O.#.O.#.@.@.#.@.' P S                   ",
"                      s W O.#.#.#.#.@.^ g t                     ",
"                        M ! #.#.#.#.) g                         ",
"                          d [ #.@.@.U y                         ",
"                          d ~ @.@.@.g 0                         ",
"                        a T @.@.@. .P a                         ",
"                      6 F ) o.o.o.{ [ D -                       ",
"                      u G ] L K J H B n q                       ",
"                      2 z v v p i x x z =                       ",
"                      * h k l e 9 r k j ,                       ",
"                        4 8 w 7 3 2 7 5 %                       ",
"                          : < 1 > & < :                         ",
"                            @ # $ + ;                           ",
"                                                                ",
"                                                                ",
"                                                                ",
"                                                                ",
"                                                                ",
"                                                                ",
"                                                                ",
"                                                                "
};
