/* XPM */
static char *_e0a99b1889f46b5c81bd115a6d02073OTZ3YqXeoankP81S[] = {
/* columns rows colors chars-per-pixel */
"32 32 13 1 ",
"  c #5BC117",
". c #9B8A3F",
"X c #9CBE2A",
"o c #9DD720",
"O c #9B8143",
"+ c #9F8547",
"@ c #9B8940",
"# c #BFA76D",
"$ c #C1A45E",
"% c #BAED4C",
"& c #E6CF9A",
"* c #EED8A4",
"= c #F4E5C0",
/* pixels */
"#*=***************************#O",
"#*=**************************&##",
"#*=***************************#O",
"#*=*************************=*#O",
"#*=**=************************#O",
"#*=***************************#O",
"#*=***************************#O",
"#***************************=*#O",
"#***************************=*#O",
"#***************************=*#O",
"#***************************=*#O",
"#***************************=*#O",
"#*********************=*****=*#O",
"#*********************$$****=*#O",
"#******************==*******=*#O",
"#*******************$***$***=*##",
"#*****************************#O",
"#*****************************#O",
"#*****=***********************#O",
"#*=***$***********************#O",
"#*=***************************#O",
"#*=***************************#O",
"#*****************************#O",
"#*=*******%*******************#O",
"#*=******%%*******************#O",
"#*=******%o*******************#O",
"O**=****oo ===****=====*****=*#O",
"O#*****%o  ******************##O",
"O+OOO%Ooo OOOOOOO#OOOOOOO##OOO+O",
"O### %%oo ###########%####%####O",
"@O## o%oo  ##########o#### ###O@",
"X@OO o  oo OOOOOOOOO oOO%O OOO.X"
};
