/* XPM */
static char *_1df98cd7ca64abdd78a4f2315e682f2GK2zsUTl1fDd9Or6[] = {
/* columns rows colors chars-per-pixel */
"32 32 2 1 ",
"  c #52C9DE",
". c #8AE2F1",
/* pixels */
"                                ",
" ... ... ... ... ... ... ... ...",
" ... ... ... ... ... ... ... ...",
" ... ... ... ... ... ... ... ...",
"                                ",
" ... ... ... ... ... ... ... ...",
" ... ... ... ... ... ... ... ...",
" ... ... ... ... ... ... ... ...",
"                                ",
" ... ... ... ... ... ... ... ...",
" ... ... ... ... ... ... ... ...",
" ... ... ... ... ... ... ... ...",
"                                ",
" ... ... ... ... ... ... ... ...",
" ... ... ... ... ... ... ... ...",
" ... ... ... ... ... ... ... ...",
"                                ",
" ... ... ... ... ... ... ... ...",
" ... ... ... ... ... ... ... ...",
" ... ... ... ... ... ... ... ...",
"                                ",
" ... ... ... ... ... ... ... ...",
" ... ... ... ... ... ... ... ...",
" ... ... ... ... ... ... ... ...",
"                                ",
" ... ... ... ... ... ... ... ...",
" ... ... ... ... ... ... ... ...",
" ... ... ... ... ... ... ... ...",
"                                ",
" ... ... ... ... ... ... ... ...",
" ... ... ... ... ... ... ... ...",
" ... ... ... ... ... ... ... ..."
};
