/* XPM */
static char *dbd75b22ae094d5cde6a695305d38bbe5u2GhM1FpMymYK1y[] = {
/* columns rows colors chars-per-pixel */
"32 32 13 1 ",
"  c #9B8143",
". c #9A874F",
"X c #9A884F",
"o c #A0864A",
"O c #7BA086",
"+ c #54C7DA",
"@ c #52C9DE",
"# c #94AB8E",
"$ c #93AE94",
"% c #CBB786",
"& c #D6C496",
"* c #8AE0ED",
"= c #8AE2F1",
/* pixels */
"@@@@@@@@@@@@@@@@@@@@@@@@@@@@@@@@",
"@===@===@===@===@===@===@===@===",
"@===@===@===@===@===@===@===@===",
"@===@===@===@===@===@===@===@===",
"@@@@@@@@@@@@@@@@@@@@@@@@@@@@@@@@",
"@===@===@===@===@===@===@===@===",
"@===@===@===@===@===@===@===@===",
"@===@===@===@===@===@===@===@===",
"@@@@@@@@@@@@@@@@@@@@@@@@@@@@@@@@",
"@===@===@===@===@===@===@===@===",
"@===@===@===@===@===@===@===@===",
"@===@===@===@===@===@===@===@===",
"@@@@@@@@@@@@@@@@@@@@@@@@@@@@@@@@",
"@===@===@===@===@===@===@===@===",
"@===@===@===@===@===@===@===@===",
"@===@===@===@===@===@===@===@===",
"@@@@@@@@@@@@@@@@@@@@@@@@@@@@@@@@",
"@===@===@===@===@===@===@===@===",
"@===@===@===@===@===@===@===@===",
"@===@===@===@===@===@===@===@===",
"@@@@@@@@@@@@@@@@@@@@@@@@@@@@@@@@",
"@===@===@===@===@===@===@===@===",
"@===@===@===@===@===@===@===@===",
"@===@===@===@===@===@===@===@===",
"@@@@@@@@@@@@@@@@@@@@@@@@@@@@@@@@",
"@===@===@===@===@===@===@===@===",
"@===@===@===@===@===@===@===@===",
"@===@===@===@===@===@===@===@===",
"@@@@@@@@@@@@@@@@@@@@@@@@@@@@@@@@",
"@===@===@===@===@===@===@===@===",
"+#X                          .#*",
"O.%&&&&&&&&&&&&&&&&&&&&&&&&&&%o$"
};
