/* XPM */
static char *_bab4817df304d1ea3db9fc5bab01cf3SH1JAIISen5FadfC[] = {
/* columns rows colors chars-per-pixel */
"32 32 13 1 ",
"  c #9B8143",
". c #9E8345",
"X c #A18749",
"o c #A68B4B",
"O c #AA8F4D",
"+ c #BDA15B",
"@ c #B49D66",
"# c #BFA76D",
"$ c #C1A45E",
"% c #E6CF9A",
"& c #EED8A4",
"* c #EBDBB4",
"= c #F4E5C0",
/* pixels */
"#&&&&&&&&&&&&&&&&&&&&&&&&&&&&&# ",
"#&&&&&&&&&&&&&&&&&&&&&&&&&&&&%##",
"#%&&&&&&&&&&&&&&&&&&&&&&&&&&=&# ",
"#&&&&&&&&&&&&&&&&&&&&&&&&&&&&=# ",
"#&=&&&&&&&&&&&&&&&&&&&&&&&&&&=# ",
" #&&&&&&&&&&&&&&&&&&&&&&&&&&&=# ",
"#&&&&&&&&&&&&&&&&&&&&&&&&&&&&&# ",
" &&&&&&&&&&&&&&&&&&&&&&&&&&&&&# ",
"#&&&&&&&&&&&&&&&&&&&&&&&&&&&&&# ",
"#&&&&&&&&&&&&&&&&&&&&==&&&&&&&# ",
"#&&&&&&&&&&&&&&&&&&&&&##&&&&&&# ",
"#&&&&&&&&&&&&&&&&&&&&&&&&&&&&&# ",
"#&&&&&&&&&&&&&&&&&&&&&&&&&&&&&# ",
"#&&&&&&&&&&&&&&&&&&&&&&&&&&&&&# ",
"#&&&&&&&&&&&&&&&&&&&&&&&&&&&&&# ",
"#&&&&&&&&&&=&&&&&&&&&&&&&&&&&&##",
"#&&&&&&&&=&&&&&&&&&&&&&&&&&&&&# ",
" &&&&&&&&&&&&&&&&&&&&&&&&&&&&&# ",
"#&&&&&&&&&&===&&&&&&&&&&&&&&&&# ",
"#&&&&&&&&&&&&&&&&&&&&&&&&&&&&&# ",
"#&&&&&&&&&&&&&&&&&&&&&&&&&&&&&# ",
"#&&&&&&&&&&&&&&&&&&&&&&&&&&&&&# ",
"#&&&&&&&&&&&&&&&&&&&&&&&&&&&&&# ",
"#&&&&&&&&&&&&&&&&&&&&&&&&&&&&&# ",
"#&&&&&&&&&&&&&&&&&&&&&&&&&&&&&# ",
"#&=&&&&&&&&&&&&&&&&&&&&&&&&&&=# ",
" &&==&=====&&&&&&&&=&&====&&=&# ",
" #&&&&&&&&&&&&&&&&&&&&&&&&&&&## ",
" #X       # ##               X# ",
" o+$$$$$$#$$$$$$$$$$$$$$$$$$$+o ",
" O.                          .O ",
" @*==========================*@ "
};
