/* XPM */
static char *e3dddbd8fe3d441b86dd29e900ac0ab8MmKu543reOLBYqsZ[] = {
/* columns rows colors chars-per-pixel */
"32 32 15 1 ",
"  c #9B8143",
". c #9A874F",
"X c #9A884F",
"o c #A0864A",
"O c #3EA1BA",
"+ c #7BA086",
"@ c #54C7DA",
"# c #52C9DD",
"$ c #52C9DE",
"% c #68C0D8",
"& c #93AE94",
"* c #CBB786",
"= c #D6C496",
"- c #8AE0ED",
"; c #8AE2F1",
/* pixels */
"OOOOOOOOOOOOOOOOOOOOOOOOOOOOOOOO",
"O%%%O%%%O%%%O%%%O%%%O%%%O%%%O%%%",
"O%%%O%%%O%%%O%%%O%%%O%%%O%%%O%%%",
"O%%%O%%%O%%%O%%%O%%%O%%%O%%%O%%%",
"OOOOOOOOOOOOOOOOOOOOOOOOOOOOOOOO",
"O%%%O%%%O%%%O%%%O%%%O%%%O%%%O%%%",
"O%%%O%%%O%%%O%%%O%%%O%%%O%%%O%%%",
"O%%%O%%%O%%%O%%%O%%%O%%%O%%%O%%%",
"OOOOOOOOOOOOOOOOOOOOOOOOOOOOOOOO",
"#;;;$;;;$;;;$;;;$;;;$;;;$;;;$;;;",
"#;;;$;;;$;;;$;;;$;;;$;;;$;;;$;;;",
"#;;;$;;;$;;;$;;;$;;;$;;;$;;;$;;;",
"##$$$$$$$$$$$$$$$$$$$$$$$$$$$$$$",
"#;;;$;;;$;;;$;;;$;;;$;;;$;;;$;;;",
"#;;;$;;;$;;;$;;;$;;;$;;;$;;;#;;;",
"$;;;$;;;$;;;$;;;$;;;$;;;$;;;$;;;",
"$$$$$$$$$$$$$$$$$$$$$$$$$$$$$$$$",
"$;;;$;;;$;;;$;;;$;;;$;;;$;;;$;;;",
"$;;;$;;;$;;;$;;;$;;;$;;;$;;;$;;;",
"$;;;$;;;$;;;$;;;$;;;$;;;$;;;$;;;",
"$$$$$$$$$$$$$$$$$$$$$$$$$$$$$$$$",
"$;;;$;;;$;;;$;;;$;;;$;;;$;;;$;;;",
"$;;;$;;;$;;;$;;;$;;;$;;;$;;;$;;;",
"$;;;$;;;$;;;$;;;$;;;$;;;$;;;$;;;",
"$$$$$$$$$$$$$$$$$$$$$$$$$$$$$$$$",
"$;;;$;;;$;;;$;;;$;;;$;;;$;;;$;;;",
"$;;;$;;;$;;;$;;;$;;;$;;;$;;;$;;;",
"$;;;$;;;$;;;$;;;$;;;$;;;$;;;$;;;",
"$$$$$$$$$$$$$$$$$$$$$$$$$$$$$$$$",
"$;;;$;;;$;;;$;;;$;;;$;;;$;;;$;;;",
"@&X                          .&-",
"+o*==========================* &"
};
