/* XPM */
static char *_3c09468944a42a9913983ce7dfb9cd0Wrx93YNLXscoKiAG[] = {
/* columns rows colors chars-per-pixel */
"32 32 172 2 ",
"   c #000000",
".  c #364268",
"X  c #364368",
"o  c #374368",
"O  c #374369",
"+  c #384369",
"@  c #3B436C",
"#  c #3C446D",
"$  c #454375",
"%  c #464375",
"&  c #454476",
"*  c #474476",
"=  c #474577",
"-  c #474578",
";  c #4B467F",
":  c #4C477F",
">  c #4D4780",
",  c #4E4680",
"<  c #4E4780",
"1  c #4E4781",
"2  c #4C4880",
"3  c #4E4881",
"4  c #54498B",
"5  c #544A8B",
"6  c #554A8B",
"7  c #554B8C",
"8  c #564B8C",
"9  c #574D91",
"0  c #574E91",
"q  c #564E92",
"w  c #584E91",
"e  c #584F92",
"r  c #584F93",
"t  c #575194",
"y  c #565095",
"u  c #575195",
"i  c #575196",
"p  c #595093",
"a  c #585394",
"s  c #585197",
"d  c #585296",
"f  c #585297",
"g  c #595297",
"h  c #585397",
"j  c #595397",
"k  c #5A5495",
"l  c #5B5495",
"z  c #5B5595",
"x  c #585696",
"c  c #57579D",
"v  c #5B5599",
"b  c #58569C",
"n  c #59579C",
"m  c #58569D",
"M  c #58579D",
"N  c #58579E",
"B  c #555F9A",
"V  c #565F9A",
"C  c #5A589D",
"Z  c #58589E",
"A  c #456D90",
"S  c #57609A",
"D  c #57619A",
"F  c #5E629C",
"G  c #5F629C",
"H  c #5F629D",
"J  c #5F649D",
"K  c #5B7798",
"L  c #61659D",
"P  c #60659F",
"I  c #5658A1",
"U  c #565AA1",
"Y  c #575AA1",
"T  c #575BA2",
"R  c #565EA7",
"E  c #565FA7",
"W  c #575FA7",
"Q  c #585BA2",
"!  c #585BA3",
"~  c #595DA3",
"^  c #5A5DA3",
"/  c #5E5CA1",
"(  c #5B5FA5",
")  c #5E61A7",
"_  c #5F62A7",
"`  c #5562AA",
"'  c #5662AB",
"]  c #5762AB",
"[  c #5763AC",
"{  c #5860A8",
"}  c #5B62AA",
"|  c #5E67AD",
" . c #4F7AA4",
".. c #517DA8",
"X. c #5565B0",
"o. c #5666B0",
"O. c #5766B0",
"+. c #5666B1",
"@. c #5667B1",
"#. c #5668B1",
"$. c #566BB6",
"%. c #566BB7",
"&. c #5969B2",
"*. c #5A6AB3",
"=. c #5B6AB4",
"-. c #5B6BB4",
";. c #5D6DB5",
":. c #5F6EB7",
">. c #566DB8",
",. c #576DB8",
"<. c #576DB9",
"1. c #566FBC",
"2. c #5A6EB9",
"3. c #5771BD",
"4. c #5671BE",
"5. c #5671BF",
"6. c #5672BE",
"7. c #5672BF",
"8. c #5B70BB",
"9. c #5F70B8",
"0. c #5B71BC",
"q. c #5A73BF",
"w. c #5C72BC",
"e. c #5E73BD",
"r. c #6163A9",
"t. c #6363A9",
"y. c #6165A9",
"u. c #687CAE",
"i. c #697DAE",
"p. c #697EAE",
"a. c #697EAF",
"s. c #616AB0",
"d. c #656CB0",
"f. c #6070B7",
"g. c #6371B6",
"h. c #6773B9",
"j. c #6074BE",
"k. c #6776BE",
"l. c #6877BE",
"z. c #5773C0",
"x. c #5974C1",
"c. c #5A75C1",
"v. c #5B76C2",
"b. c #5B76C3",
"n. c #5D76C2",
"m. c #5C76C3",
"M. c #5E77C2",
"N. c #5D79C4",
"B. c #5E79C4",
"V. c #5E7AC5",
"C. c #5F7BC6",
"Z. c #6678C0",
"A. c #6479C2",
"S. c #607BC5",
"D. c #637CC5",
"F. c #607CC7",
"G. c #687CC5",
"H. c #637DC8",
"J. c #6784AC",
"K. c #6A89B1",
"L. c #6C89B3",
"P. c #6E83CA",
"I. c #6883CC",
"U. c #6B84CC",
"Y. c #6984CE",
"T. c #6A84CE",
"R. c #6A85CE",
"E. c #6C86CE",
"W. c #6E88D0",
"Q. c #708AD2",
"!. c #728CD4",
"~. c #738ED4",
/* pixels */
"                                                                ",
"                                                                ",
"                                                                ",
"                                                                ",
"                                                                ",
"                                                                ",
"                                                                ",
"                                                                ",
"                                                                ",
"                                                                ",
"                          i.F k k _ u.                          ",
"                      J t ~ g.k.l.h.y.v V                       ",
"                  A q | G.Q.~.E.U.Y.W.E.s.q ..                  ",
"                 .t =.W.E.s._ C n Z -.D.E.:.h J.                ",
"                q :.I.A.Y 4 ; % % : 6 n 2.H.=.r                 ",
"              L E S.j.h 1 @ X X o X # : h ,.V.} V               ",
"              t 2.M.M 1 X X O O o o o o 1 M 5.0.h               ",
"            a.Y b.&.8 @ X X @ O o o O o @ 8 [ c.~ a.            ",
"            F [ b.~ 1 X X @ O O O O O O o 2 ~ 5.[ P             ",
"            k [ x.M - X X X O O O O O O o % b 5.O.k             ",
"            h &.z.c % X @ X X O O O O O O - c 5.[ h             ",
"            F [ z.Y 1 X X + X O O O O O o 2 ~ 5.[ F             ",
"            a.! z.O.8 @ X X X + O O O o # 8 O.5.~ a.            ",
"              t ,.1.M 1 + X + X O O o O 2 I 1.,.h               ",
"              D E z.%.h 1 @ X X o X @ : s %.5.~ D               ",
"                r O.z.w.t.h 1 - % : 5 b %.5.O.h                 ",
"                 .s O.c.M.Z.d.t./ _ :.q.5.#.t K.                ",
"                  K r E ,.M.N.N.V.C.C.0.{ p L.                  ",
"                      D t Y ` O.X.` Y t D                       ",
"                          i.F k a F a.                          ",
"                                                                ",
"                                                                "
};
