/* XPM */
static char *_cd051aa92af4574cae2d95c22a6a4c7YDt9OBOmTrUB6BE4[] = {
/* columns rows colors chars-per-pixel */
"32 32 67 1 ",
"  c #000000",
". c #FE6F00",
"X c #FE7003",
"o c #FB7106",
"O c #FB7207",
"+ c #FC7104",
"@ c #FE7104",
"# c #FC7106",
"$ c #FD7106",
"% c #F7730A",
"& c #FC7308",
"* c #FE730A",
"= c #F9740A",
"- c #FE740A",
"; c #FE740B",
": c #FE750E",
"> c #E67B1E",
", c #F17611",
"< c #F67711",
"1 c #FF7E1E",
"2 c #EE7F21",
"3 c #FE891C",
"4 c #D78332",
"5 c #D98230",
"6 c #ED8126",
"7 c #FF8224",
"8 c #FB8B20",
"9 c #FF862A",
"0 c #FF862B",
"q c #FF882F",
"w c #E58835",
"e c #E48937",
"r c #FF8A32",
"t c #FF8E3B",
"y c #FC9F31",
"u c #FF913D",
"i c #AD9968",
"p c #A49E75",
"a c #C58D4A",
"s c #C68E4B",
"d c #DC924A",
"f c #FF9241",
"g c #FF9341",
"h c #FF9E41",
"j c #CFA258",
"k c #FFAF42",
"l c #FFA34A",
"z c #FFA64F",
"x c #FAB045",
"c c #FFBC55",
"v c #FFB75B",
"b c #FFBE5B",
"n c #D09F65",
"m c #C7A571",
"M c #C7A672",
"N c #C7A673",
"B c #C7A674",
"V c #FFA460",
"C c #FFB569",
"Z c #6ABCBF",
"A c #6BBCBF",
"S c #53C9DD",
"D c #93A88D",
"F c #91A98F",
"G c #B5B99B",
"H c #DACC85",
"J c #9BD1CE",
/* pixels */
"                                ",
"                                ",
"                                ",
"                                ",
"                                ",
"                                ",
"                                ",
"                                ",
"                                ",
"                                ",
"               MxB              ",
"              GOk=              ",
"          Zi5,X..>A             ",
"        SM+;9tfur:+BS           ",
"        pXt1VVVCCzl+s G6F       ",
"        ,rVfVVVVVff7+&w6F       ",
"        ,bVfVVCCCzvcy8a5        ",
"        p+t0VVVVVzl3jnGwF       ",
"        SN+&0tfzh:+dF           ",
"          JM5<...2J             ",
"              FO;%              ",
"               B%H              ",
"                                ",
"                                ",
"                                ",
"                                ",
"                                ",
"                                ",
"                                ",
"                                ",
"                                ",
"                                "
};
