/* XPM */
static char *result[] = {
/* columns rows colors chars-per-pixel */
"32 32 123 2 ",
"   c #B57FE0",
".  c #C67FE0",
"X  c #999BDF",
"o  c #9A9BDF",
"O  c #A892DF",
"+  c #9F9FE1",
"@  c #A38EE0",
"#  c #AD8FE0",
"$  c #B180E0",
"%  c #B680E0",
"&  c #B987E0",
"*  c #BB86E0",
"=  c #BD85E0",
"-  c #BE84E0",
";  c #BF84E0",
":  c #B38BE0",
">  c #B58AE0",
",  c #BF8AE2",
"<  c #BD8DE2",
"1  c #A190E0",
"2  c #AF98E4",
"3  c #BC90E3",
"4  c #B896E4",
"5  c #99BCEB",
"6  c #A3A6E7",
"7  c #B2A5E7",
"8  c #C182E0",
"9  c #C282E1",
"0  c #C480E0",
"q  c #C580E0",
"w  c #C581E0",
"e  c #C680E0",
"r  c #C781E0",
"t  c #C781E1",
"y  c #C482E1",
"u  c #C782E1",
"i  c #C187E1",
"p  c #C286E1",
"a  c #C486E2",
"s  c #C883E1",
"d  c #C884E1",
"f  c #C985E2",
"g  c #C986E2",
"h  c #CA87E2",
"j  c #C089E2",
"k  c #CA88E2",
"l  c #CA88E3",
"z  c #CB89E3",
"x  c #CB8AE3",
"c  c #CB8BE3",
"v  c #CC8DE4",
"b  c #CD8EE4",
"n  c #CD8FE4",
"m  c #CE90E5",
"M  c #CE91E5",
"N  c #CE92E5",
"B  c #C09AE5",
"V  c #C698E5",
"C  c #D096E6",
"Z  c #D197E7",
"A  c #D299E7",
"S  c #D29AE7",
"D  c #D29BE8",
"F  c #D39CE8",
"G  c #D49EE8",
"H  c #D49EE9",
"J  c #C5A1E8",
"K  c #CDA8EB",
"L  c #D6A1E9",
"P  c #D6A2EA",
"I  c #D6A3EA",
"U  c #D7A4EA",
"Y  c #D7A5EA",
"T  c #D8A8EB",
"R  c #DAABEC",
"E  c #DAACEC",
"W  c #DBACED",
"Q  c #DBADED",
"!  c #DBAEED",
"~  c #D4B0ED",
"^  c #D6B2EE",
"/  c #D7B4EF",
"(  c #DCB1EE",
")  c #DDB1EE",
"_  c #DDB2EE",
"`  c #DDB3EE",
"'  c #DEB3EE",
"]  c #D8B4EE",
"[  c #D9B6EF",
"{  c #DEB5EF",
"}  c #DFB7EF",
"|  c #D9B8EF",
" . c #DAB8F0",
".. c #DBB9F0",
"X. c #DDBCF1",
"o. c #DEBCF1",
"O. c #DFBEF1",
"+. c #E0B9F0",
"@. c #E0BAF0",
"#. c #E1BBF1",
"$. c #E2BCF1",
"%. c #E2BDF1",
"&. c #E2BEF1",
"*. c #E3BEF1",
"=. c #E3BFF1",
"-. c #E3BFF2",
";. c #AFD8F2",
":. c #C5D1F3",
">. c #E1C1F2",
",. c #E4C0F2",
"<. c #E4C1F2",
"1. c #E4C2F2",
"2. c #E4C2F3",
"3. c #E5C3F3",
"4. c #E5C4F3",
"5. c #E5C5F3",
"6. c #E6C5F3",
"7. c #E6C6F3",
"8. c #E6C6F4",
"9. c #E6C7F4",
"0. c #E7C7F4",
"q. c #E7C8F4",
"w. c #000000",
/* pixels */
"w.w.w.w.w.w.w.w.w.w.w.w.w.w.w.w.w.w.w.w.w.w.w.w.w.w.w.w.w.w.w.w.",
"w.w.w.w.w.w.w.w.w.w.w.w.w.w.w.w.w.w.w.w.w.w.w.w.w.w.w.w.w.w.w.w.",
"w.w.w.w.w.w.w.w.w.w.w.w.w.w.w.w.w.w.w.w.w.w.w.w.w.w.w.w.w.w.w.w.",
"w.w.w.w.w.w.w.w.w.w.w.w.w.w.w.w.w.w.w.w.w.w.w.w.w.w.w.w.w.w.w.w.",
"w.w.w.w.w.w.w.w.w.w.w.w.w.w.w.w.w.w.w.w.w.w.w.w.w.w.w.w.w.w.w.w.",
"w.w.w.w.w.w.w.w.w.w.w.w.w.w.w.w.w.w.w.w.w.w.w.w.w.w.w.w.w.w.w.w.",
"w.w.w.w.w.w.w.w.w.w.w.w.w.w.w.j * w.w.w.w.w.w.w.w.w.w.w.w.w.w.w.",
"w.w.w.w.w.w.w.w.w.w.w.w.w.3 . $.$.j w.w.w.w.w.w.w.w.w.w.w.w.w.w.",
"w.w.w.w.w.w.w.w.w.w.w.w.. A ) q.4.; w.w.w.w.w.w.w.w.w.w.w.w.w.w.",
"w.w.w.w.w.w.w.w.w.w.w.3 S q.<.7.( , w.w.w.w.w.w.w.w.w.a k w.w.w.",
"w.w.w.w.w.w.w.w.w.w.w.e g d . d g e w.w.w.w.w.w.w.w.t { n w.w.w.",
"w.w.w.w.w.w.w.w.@   9 C U R ! R U C s w X w.w.w.w.e R 9.u w.w.w.",
"w.w.w.w.w.w.w.$ 8.2.] q.q.q.q.q.q.q.7.! x - w.w.8 F q.} . w.w.w.",
"w.w.w.w.> q e 5 ;.| X.q.q.q.q.q.q.q.q.&.' r . f P 0.q.I O w.w.w.",
"w.w.w.r H b v / K  .O.3.P c r r c P 3.q.#.=.6.q.q.q.6.l w.w.w.w.",
"w.w.p Y q.*._ -.q.q.q.v g L Q Q L g v q.q.q.0.q.q.q.q.B w.w.w.w.",
"w.w.= Y q.&._ -.q.q.q.9.1.5.q.7.%.Z v q.6.q.0.q.q.q.q.V w.w.w.w.",
"w.w.w.r G F v [ ~ ..>.q.q.q.q.q.q.6.3.0.7.5.D ` q.q.q.N w.w.w.w.",
"w.w.w.w.> q e 6 :.q.o.q.q.q.q.q.q.q.q.9.T h w q C 4.q.E 8 w.w.w.",
"w.w.w.w.w.w.w.2 3.J ^ q.q.q.q.q.q.q.7.Q z i w.w.& M 7.%.. w.w.w.",
"w.w.w.w.w.w.w.w.1 % y C Y R ! R Y C s 0 X w.w.w.w.= H 0.s w.w.w.",
"w.w.w.w.w.w.w.w.w.w.w.w d E 4.4.W . w.w.w.w.w.w.w.w.4 +.m w.w.w.",
"w.w.w.w.w.w.w.w.w.w.w.w.r 1.q.q.&.. w.w.w.w.w.w.w.w.w.7 + w.w.w.",
"w.w.w.w.w.w.w.w.w.w.w.w.w.< } 8.,.e w.w.w.w.w.w.w.w.w.w.w.w.w.w.",
"w.w.w.w.w.w.w.w.w.w.w.w.w.w.o @.+.# w.w.w.w.w.w.w.w.w.w.w.w.w.w.",
"w.w.w.w.w.w.w.w.w.w.w.w.w.w.w.3 : w.w.w.w.w.w.w.w.w.w.w.w.w.w.w.",
"w.w.w.w.w.w.w.w.w.w.w.w.w.w.w.w.w.w.w.w.w.w.w.w.w.w.w.w.w.w.w.w.",
"w.w.w.w.w.w.w.w.w.w.w.w.w.w.w.w.w.w.w.w.w.w.w.w.w.w.w.w.w.w.w.w.",
"w.w.w.w.w.w.w.w.w.w.w.w.w.w.w.w.w.w.w.w.w.w.w.w.w.w.w.w.w.w.w.w.",
"w.w.w.w.w.w.w.w.w.w.w.w.w.w.w.w.w.w.w.w.w.w.w.w.w.w.w.w.w.w.w.w.",
"w.w.w.w.w.w.w.w.w.w.w.w.w.w.w.w.w.w.w.w.w.w.w.w.w.w.w.w.w.w.w.w.",
"w.w.w.w.w.w.w.w.w.w.w.w.w.w.w.w.w.w.w.w.w.w.w.w.w.w.w.w.w.w.w.w."
};
